<?xml version="1.0" standalone="no"?>
<!DOCTYPE svg PUBLIC "-//W3C//DTD SVG 20010904//EN"
 "http://www.w3.org/TR/2001/REC-SVG-20010904/DTD/svg10.dtd">
<svg version="1.0" xmlns="http://www.w3.org/2000/svg"
 width="1280.000000pt" height="1280.000000pt" viewBox="0 0 1280.000000 1280.000000"
 preserveAspectRatio="xMidYMid meet">
<g transform="translate(0.000000,1280.000000) scale(0.100000,-0.100000)"
fill="#000000" stroke="none">
<path d="M8209 9515 c-255 -41 -477 -128 -687 -269 -364 -243 -618 -623 -713
-1066 -20 -91 -23 -134 -23 -325 0 -158 5 -242 16 -299 l16 -79 -117 7 c-244
15 -576 70 -849 141 -620 163 -1230 468 -1737 869 -226 179 -520 462 -674 649
-35 42 -68 77 -73 77 -14 0 -112 -212 -147 -317 -60 -183 -76 -294 -75 -533 0
-183 3 -230 23 -320 62 -291 201 -570 389 -784 70 -78 199 -197 259 -239 18
-12 33 -26 33 -31 0 -11 -107 0 -234 25 -124 23 -262 69 -385 126 -57 26 -98
40 -104 34 -13 -13 10 -245 35 -361 127 -589 570 -1076 1138 -1250 58 -18 112
-34 120 -37 24 -8 -20 -21 -129 -40 -118 -19 -376 -22 -484 -4 -43 7 -81 10
-85 7 -17 -18 90 -259 174 -390 281 -435 762 -726 1277 -771 42 -4 77 -10 77
-15 0 -12 -203 -151 -335 -230 -411 -244 -868 -395 -1360 -451 -125 -14 -492
-18 -637 -6 -63 5 -98 4 -98 -2 0 -17 243 -157 445 -256 839 -413 1733 -565
2700 -459 1058 116 2009 569 2750 1310 370 371 664 782 910 1276 338 678 513
1396 519 2132 l1 238 26 22 c14 11 66 52 115 91 188 147 435 406 601 628 90
121 92 135 21 105 -107 -43 -327 -117 -438 -147 -123 -32 -394 -85 -411 -79
-6 2 27 30 73 63 166 118 355 324 462 502 72 120 159 324 144 338 -2 3 -78
-33 -169 -79 -180 -93 -327 -155 -496 -210 -134 -43 -339 -96 -373 -96 -17 0
-45 20 -90 64 -107 106 -244 201 -395 276 -155 77 -269 118 -420 150 -130 28
-455 37 -586 15z"/>
</g>
</svg>
