<svg version="1.0" xmlns="http://www.w3.org/2000/svg" width="1706.667" height="1706.667" viewBox="0 0 1280 1280"><path d="M820.9 328.5c-25.5 4.1-47.7 12.8-68.7 26.9-36.4 24.3-61.8 62.3-71.3 106.6-2 9.1-2.3 13.4-2.3 32.5 0 15.8.5 24.2 1.6 29.9l1.6 7.9-11.7-.7c-24.4-1.5-57.6-7-84.9-14.1-62-16.3-123-46.8-173.7-86.9-22.6-17.9-52-46.2-67.4-64.9-3.5-4.2-6.8-7.7-7.3-7.7-1.4 0-11.2 21.2-14.7 31.7-6 18.3-7.6 29.4-7.5 53.3 0 18.3.3 23 2.3 32 6.2 29.1 20.1 57 38.9 78.4 7 7.8 19.9 19.7 25.9 23.9 1.8 1.2 3.3 2.6 3.3 3.1 0 1.1-10.7 0-23.4-2.5-12.4-2.3-26.2-6.9-38.5-12.6-5.7-2.6-9.8-4-10.4-3.4-1.3 1.3 1 24.5 3.5 36.1 12.7 58.9 57 107.6 113.8 125 5.8 1.8 11.2 3.4 12 3.7 2.4.8-2 2.1-12.9 4-11.8 1.9-37.6 2.2-48.4.4-4.3-.7-8.1-1-8.5-.7-1.7 1.8 9 25.9 17.4 39 28.1 43.5 76.2 72.6 127.7 77.1 4.2.4 7.7 1 7.7 1.5 0 1.2-20.3 15.1-33.5 23-41.1 24.4-86.8 39.5-136 45.1-12.5 1.4-49.2 1.8-63.7.6-6.3-.5-9.8-.4-9.8.2 0 1.7 24.3 15.7 44.5 25.6 83.9 41.3 173.3 56.5 270 45.9 105.8-11.6 200.9-56.9 275-131 37-37.1 66.4-78.2 91-127.6 33.8-67.8 51.3-139.6 51.9-213.2l.1-23.8 2.6-2.2c1.4-1.1 6.6-5.2 11.5-9.1 18.8-14.7 43.5-40.6 60.1-62.8 9-12.1 9.2-13.5 2.1-10.5-10.7 4.3-32.7 11.7-43.8 14.7-12.3 3.2-39.4 8.5-41.1 7.9-.6-.2 2.7-3 7.3-6.3 16.6-11.8 35.5-32.4 46.2-50.2 7.2-12 15.9-32.4 14.4-33.8-.2-.3-7.8 3.3-16.9 7.9-18 9.3-32.7 15.5-49.6 21-13.4 4.3-33.9 9.6-37.3 9.6-1.7 0-4.5-2-9-6.4-10.7-10.6-24.4-20.1-39.5-27.6-15.5-7.7-26.9-11.8-42-15-13-2.8-45.5-3.7-58.6-1.5z"/></svg>